# xmcd CD database file
#
# Track frame offsets:
#	150
#	6730
#	35890
#	62337
#	78045
#	108147
#	131745
#	153445
#	176450
#	202887
#	224627
#	245870
#	279957
#
# Disc length: 4033 seconds
#
# Revision: 0
# Processed by: cddbd v1.5PL3 Copyright (c) Steve Scherf et al.
# Submitted via: CDex 1.51
#
DISCID=b50fbf0d
DTITLE=Insania - World Of Ice
DYEAR=1900
DGENRE=Rock
TTITLE0=Insaniation
TTITLE1=Fighting My Tears
TTITLE2=Fire
TTITLE3=With Courage And Pride
TTITLE4=Forever Alone
TTITLE5=Private 6 - Machine
TTITLE6=Paradisia
TTITLE7=World Of Ice
TTITLE8=Forever Is A Long Time
TTITLE9=Furious Seas
TTITLE10=Carried By Wings
TTITLE11=The Abyss Of The Morningstar
TTITLE12=Fire In The Sky
EXTD=
EXTT0=
EXTT1=
EXTT2=
EXTT3=
EXTT4=
EXTT5=
EXTT6=
EXTT7=
EXTT8=
EXTT9=
EXTT10=
EXTT11=
EXTT12=
PLAYORDER=
